<svg width="170" height="40" viewBox="0 0 170 40" fill="none" xmlns="http://www.w3.org/2000/svg">
<rect width="40" height="40" fill="#FF6600"/>
<path d="M13.3707 13.9091H16.4709L19.456 19.5469H19.5838L22.5689 13.9091H25.669L20.8942 22.3722V27H18.1456V22.3722L13.3707 13.9091Z" fill="white"/>
<path d="M54.1378 27V13.9091H56.9055V19.3104H62.5241V13.9091H65.2855V27H62.5241V21.5923H56.9055V27H54.1378ZM70.3161 27.1854C69.6896 27.1854 69.1314 27.0767 68.6413 26.8594C68.1513 26.6378 67.7635 26.3118 67.478 25.8814C67.1967 25.4467 67.0561 24.9055 67.0561 24.2578C67.0561 23.7124 67.1563 23.2543 67.3565 22.8835C67.5568 22.5128 67.8295 22.2145 68.1747 21.9886C68.5199 21.7628 68.9119 21.5923 69.3509 21.4773C69.794 21.3622 70.2585 21.2812 70.7443 21.2344C71.3153 21.1747 71.7756 21.1193 72.125 21.0682C72.4744 21.0128 72.728 20.9318 72.8857 20.8253C73.0433 20.7187 73.1222 20.5611 73.1222 20.3523V20.3139C73.1222 19.9091 72.9943 19.5959 72.7386 19.3743C72.4872 19.1527 72.1293 19.0419 71.6648 19.0419C71.1747 19.0419 70.7848 19.1506 70.495 19.3679C70.2053 19.581 70.0135 19.8494 69.9197 20.1733L67.4013 19.9688C67.5291 19.3722 67.7805 18.8565 68.1555 18.4219C68.5305 17.983 69.0142 17.6463 69.6065 17.4119C70.2031 17.1733 70.8935 17.054 71.6776 17.054C72.223 17.054 72.745 17.1179 73.2436 17.2457C73.7464 17.3736 74.1918 17.5717 74.5795 17.8402C74.9716 18.1087 75.2805 18.4538 75.5064 18.8757C75.7322 19.2933 75.8452 19.794 75.8452 20.3778V27H73.2628V25.6385H73.1861C73.0284 25.9453 72.8175 26.2159 72.5533 26.4503C72.2891 26.6804 71.9716 26.8615 71.6009 26.9936C71.2301 27.1214 70.8018 27.1854 70.3161 27.1854ZM71.0959 25.3061C71.4964 25.3061 71.8501 25.2273 72.157 25.0696C72.4638 24.9077 72.7045 24.6903 72.8793 24.4176C73.054 24.1449 73.1413 23.8359 73.1413 23.4908V22.4489C73.0561 22.5043 72.9389 22.5554 72.7898 22.6023C72.6449 22.6449 72.4808 22.6854 72.2976 22.7237C72.1143 22.7578 71.9311 22.7898 71.7479 22.8196C71.5646 22.8452 71.3984 22.8686 71.2493 22.8899C70.9297 22.9368 70.6506 23.0114 70.4119 23.1136C70.1733 23.2159 69.9879 23.3544 69.8558 23.5291C69.7237 23.6996 69.6577 23.9126 69.6577 24.1683C69.6577 24.5391 69.7919 24.8224 70.0604 25.0185C70.3331 25.2102 70.6783 25.3061 71.0959 25.3061ZM82.3938 27.1918C81.3881 27.1918 80.5231 26.9787 79.7987 26.5526C79.0785 26.1222 78.5245 25.5256 78.1367 24.7628C77.7532 24 77.5614 23.1222 77.5614 22.1293C77.5614 21.1236 77.7553 20.2415 78.1431 19.483C78.5352 18.7202 79.0913 18.1257 79.8114 17.6996C80.5316 17.2692 81.3881 17.054 82.381 17.054C83.2376 17.054 83.9876 17.2095 84.631 17.5206C85.2745 17.8317 85.7837 18.2685 86.1587 18.831C86.5337 19.3935 86.7404 20.054 86.7788 20.8125H84.2092C84.1367 20.3224 83.945 19.9283 83.6339 19.63C83.3271 19.3274 82.9244 19.1761 82.4258 19.1761C82.0039 19.1761 81.6353 19.2912 81.32 19.5213C81.0089 19.7472 80.766 20.0774 80.5913 20.5121C80.4165 20.9467 80.3292 21.473 80.3292 22.0909C80.3292 22.7173 80.4144 23.25 80.5849 23.6889C80.7596 24.1278 81.0046 24.4624 81.32 24.6925C81.6353 24.9226 82.0039 25.0376 82.4258 25.0376C82.7369 25.0376 83.016 24.9737 83.2631 24.8459C83.5146 24.718 83.7212 24.5327 83.8832 24.2898C84.0494 24.0426 84.158 23.7464 84.2092 23.4013H86.7788C86.7362 24.1513 86.5316 24.8118 86.1651 25.3828C85.8029 25.9496 85.3022 26.3928 84.663 26.7124C84.0238 27.032 83.2674 27.1918 82.3938 27.1918ZM90.9895 24.1747L90.9959 20.9084H91.3922L94.5371 17.1818H97.6628L93.4377 22.1165H92.7921L90.9895 24.1747ZM88.5222 27V13.9091H91.2452V27H88.5222ZM94.6586 27L91.7694 22.7237L93.5847 20.7997L97.8482 27H94.6586ZM103.069 27.1918C102.059 27.1918 101.19 26.9872 100.461 26.5781C99.7365 26.1648 99.1783 25.581 98.7862 24.8267C98.3942 24.0682 98.1982 23.1712 98.1982 22.1357C98.1982 21.1257 98.3942 20.2393 98.7862 19.4766C99.1783 18.7138 99.7301 18.1193 100.442 17.6932C101.158 17.267 101.997 17.054 102.96 17.054C103.608 17.054 104.211 17.1584 104.769 17.3672C105.332 17.5717 105.822 17.8807 106.239 18.294C106.661 18.7074 106.989 19.2273 107.224 19.8537C107.458 20.4759 107.575 21.2045 107.575 22.0398V22.7876H99.2848V21.1001H105.012C105.012 20.7081 104.927 20.3608 104.756 20.0582C104.586 19.7557 104.349 19.5192 104.047 19.3487C103.749 19.174 103.401 19.0866 103.005 19.0866C102.592 19.0866 102.225 19.1825 101.906 19.3743C101.59 19.5618 101.343 19.8153 101.164 20.1349C100.985 20.4503 100.893 20.8018 100.889 21.1896V22.794C100.889 23.2798 100.979 23.6996 101.158 24.0533C101.341 24.407 101.599 24.6797 101.931 24.8714C102.263 25.0632 102.658 25.1591 103.114 25.1591C103.416 25.1591 103.693 25.1165 103.945 25.0312C104.196 24.946 104.411 24.8182 104.59 24.6477C104.769 24.4773 104.906 24.2685 104.999 24.0213L107.518 24.1875C107.39 24.7926 107.128 25.321 106.732 25.7727C106.339 26.2202 105.832 26.5696 105.21 26.821C104.592 27.0682 103.879 27.1918 103.069 27.1918ZM109.352 27V17.1818H111.992V18.8949H112.094C112.273 18.2855 112.574 17.8253 112.996 17.5142C113.418 17.1989 113.903 17.0412 114.453 17.0412C114.589 17.0412 114.737 17.0497 114.894 17.0668C115.052 17.0838 115.19 17.1072 115.31 17.1371V19.5533C115.182 19.5149 115.005 19.4808 114.779 19.451C114.553 19.4212 114.347 19.4062 114.159 19.4062C113.759 19.4062 113.401 19.4936 113.085 19.6683C112.774 19.8388 112.527 20.0774 112.344 20.3842C112.165 20.6911 112.075 21.0447 112.075 21.4453V27H109.352ZM131.884 13.9091V27H129.494L123.798 18.7607H123.702V27H120.935V13.9091H123.364L129.014 22.142H129.129V13.9091H131.884ZM138.594 27.1918C137.584 27.1918 136.715 26.9872 135.986 26.5781C135.262 26.1648 134.704 25.581 134.312 24.8267C133.92 24.0682 133.724 23.1712 133.724 22.1357C133.724 21.1257 133.92 20.2393 134.312 19.4766C134.704 18.7138 135.256 18.1193 135.967 17.6932C136.683 17.267 137.523 17.054 138.486 17.054C139.133 17.054 139.736 17.1584 140.295 17.3672C140.857 17.5717 141.347 17.8807 141.765 18.294C142.187 18.7074 142.515 19.2273 142.749 19.8537C142.983 20.4759 143.101 21.2045 143.101 22.0398V22.7876H134.81V21.1001H140.537C140.537 20.7081 140.452 20.3608 140.282 20.0582C140.111 19.7557 139.875 19.5192 139.572 19.3487C139.274 19.174 138.927 19.0866 138.53 19.0866C138.117 19.0866 137.751 19.1825 137.431 19.3743C137.116 19.5618 136.868 19.8153 136.689 20.1349C136.51 20.4503 136.419 20.8018 136.415 21.1896V22.794C136.415 23.2798 136.504 23.6996 136.683 24.0533C136.866 24.407 137.124 24.6797 137.456 24.8714C137.789 25.0632 138.183 25.1591 138.639 25.1591C138.942 25.1591 139.219 25.1165 139.47 25.0312C139.721 24.946 139.937 24.8182 140.116 24.6477C140.295 24.4773 140.431 24.2685 140.525 24.0213L143.043 24.1875C142.915 24.7926 142.653 25.321 142.257 25.7727C141.865 26.2202 141.358 26.5696 140.736 26.821C140.118 27.0682 139.404 27.1918 138.594 27.1918ZM146.744 27L144.072 17.1818H146.827L148.349 23.7784H148.438L150.023 17.1818H152.727L154.338 23.7401H154.421L155.917 17.1818H158.665L156 27H153.117L151.43 20.8253H151.308L149.621 27H146.744ZM168.287 19.9815L165.794 20.1349C165.751 19.9219 165.66 19.7301 165.519 19.5597C165.379 19.3849 165.193 19.2464 164.963 19.1442C164.737 19.0376 164.467 18.9844 164.151 18.9844C163.729 18.9844 163.374 19.0739 163.084 19.2528C162.794 19.4276 162.649 19.6619 162.649 19.956C162.649 20.1903 162.743 20.3885 162.93 20.5504C163.118 20.7124 163.44 20.8423 163.896 20.9403L165.673 21.2983C166.627 21.4943 167.339 21.8097 167.808 22.2443C168.276 22.679 168.511 23.25 168.511 23.9574C168.511 24.6009 168.321 25.1655 167.942 25.6513C167.567 26.1371 167.051 26.5163 166.395 26.7891C165.743 27.0575 164.991 27.1918 164.138 27.1918C162.839 27.1918 161.803 26.9212 161.032 26.38C160.265 25.8345 159.815 25.093 159.683 24.1555L162.362 24.0149C162.442 24.4112 162.638 24.7138 162.95 24.9226C163.261 25.1271 163.659 25.2294 164.145 25.2294C164.622 25.2294 165.006 25.1378 165.295 24.9545C165.589 24.767 165.739 24.5263 165.743 24.2322C165.739 23.9851 165.634 23.7827 165.43 23.625C165.225 23.4631 164.91 23.3395 164.484 23.2543L162.783 22.9155C161.825 22.7237 161.111 22.3913 160.642 21.9183C160.178 21.4453 159.945 20.8423 159.945 20.1094C159.945 19.4787 160.116 18.9354 160.457 18.4794C160.802 18.0234 161.286 17.6719 161.908 17.4247C162.534 17.1776 163.267 17.054 164.107 17.054C165.347 17.054 166.322 17.3161 167.034 17.8402C167.75 18.3643 168.168 19.0781 168.287 19.9815Z" fill="black"/>
</svg>
